<svg width="29" height="26" viewBox="0 0 29 26" fill="none" xmlns="http://www.w3.org/2000/svg">
<path d="M0 0H3.5L4 1H0V0Z" fill="#D9D9D9"/>
<path d="M3 1H4L6 7H5L3 1Z" fill="#D9D9D9"/>
<rect x="26.4839" y="6.22141" width="1" height="12.8091" transform="rotate(15.7829 26.4839 6.22141)" fill="#D9D9D9"/>
<path d="M9 18H24.1953L23.9297 19H9V18Z" fill="#D9D9D9"/>
<path d="M5 6H26.9302L28 6.5L27.7952 7H5V6Z" fill="#D9D9D9"/>
<rect x="7" y="22" width="4" height="4" rx="2" fill="#D9D9D9"/>
<rect x="20" y="22" width="4" height="4" rx="2" fill="#D9D9D9"/>
<path d="M5.00001 6.99999L6 7L9.50003 19L8.50004 19L5.00001 6.99999Z" fill="#D9D9D9"/>
<circle cx="25.5" cy="5.5" r="3.5" fill="#F1CE58"/>
</svg>
